<?xml version="1.0" encoding="UTF-8"?>
<svg version="1.1" xmlns="http://www.w3.org/2000/svg" width="256" height="256">
<path d="M0 0 C84.48 0 168.96 0 256 0 C256 84.48 256 168.96 256 256 C171.52 256 87.04 256 0 256 C0 171.52 0 87.04 0 0 Z " fill="#FEFEFE" transform="translate(0,0)"/>
<path d="M0 0 C7.26 0 14.52 0 22 0 C25.36945684 10.10837051 25.36945684 10.10837051 26.10546875 13.8984375 C26.36807495 15.21134766 26.36807495 15.21134766 26.63598633 16.55078125 C26.81798584 17.48277344 26.99998535 18.41476563 27.1875 19.375 C29.38626878 30.2920503 31.81701188 41.14785851 34.3125 52 C34.49525482 52.79541199 34.67800964 53.59082397 34.86630249 54.41033936 C35.90773337 58.94095317 36.95242783 63.47080241 38 68 C43.88064711 45.38291623 49.5591821 22.7269042 55 0 C62.59 0 70.18 0 78 0 C76.87532269 8.99741849 76.87532269 8.99741849 75.765625 13.51171875 C75.52376465 14.5063916 75.2819043 15.50106445 75.03271484 16.52587891 C74.77441895 17.56921387 74.51612305 18.61254883 74.25 19.6875 C73.70544759 21.91790002 73.16118138 24.14836994 72.6171875 26.37890625 C72.34487305 27.49023926 72.07255859 28.60157227 71.79199219 29.74658203 C70.84011185 33.65680318 69.9159291 37.57315016 68.99487305 41.49072266 C67.10664738 49.51512398 65.10703947 57.49170142 62.953125 65.44921875 C59.17037889 79.5414983 55.87479674 93.76586262 52.45811462 107.94987488 C50.60174807 115.65521349 48.74045797 123.3593574 46.875 131.0625 C46.70641479 131.75865417 46.53782959 132.45480835 46.36413574 133.17205811 C43.62872848 144.46130769 40.84625154 155.73814896 38 167 C37.34 166.67 36.68 166.34 36 166 C35.33835856 163.63605077 34.80664683 161.33267719 34.328125 158.9296875 C34.1694696 158.17103394 34.01081421 157.41238037 33.84735107 156.6307373 C33.49593058 154.94749227 33.14825416 153.26346258 32.80371094 151.57879639 C31.83115078 146.8297397 30.82791534 142.08713517 29.828125 137.34375 C29.60926636 136.30229828 29.39040771 135.26084656 29.16491699 134.18783569 C26.36506481 120.90958004 23.40888331 107.66579036 20.45606232 94.4209137 C19.99946275 92.37258987 19.54322786 90.32418513 19.08709717 88.27575684 C17.06217232 79.1829188 15.03255583 70.09113559 13 61 C12.75536011 59.9056665 12.51072021 58.81133301 12.25866699 57.68383789 C10.80059496 51.16351646 9.33932627 44.64391958 7.875 38.125 C7.70081543 37.34872253 7.52663086 36.57244507 7.34716797 35.77264404 C6.85484038 33.57997379 6.36135117 31.38756963 5.8671875 29.1953125 C5.71505798 28.51918915 5.56292847 27.8430658 5.40618896 27.14645386 C4.58740356 23.52695968 3.74336962 19.91485186 2.87207031 16.30761719 C2.68597198 15.53328339 2.49987366 14.75894958 2.30813599 13.96115112 C1.95108657 12.48093943 1.59020892 11.00164394 1.224823 9.52346802 C0.42576549 6.20898731 0 3.43766495 0 0 Z " fill="#0372C1" transform="translate(40,45)"/>
<path d="M0 0 C0.33 0 0.66 0 1 0 C2.25436437 6.12327352 3.50748077 12.24680092 4.75939941 18.37057495 C5.21182142 20.58359456 5.66437697 22.79658688 6.11706543 25.009552 C8.59356442 37.12029249 11.05705489 49.23321122 13.45703125 61.359375 C13.64986694 62.33327179 13.84270264 63.30716858 14.04138184 64.31057739 C14.32664734 65.75133133 14.32664734 65.75133133 14.61767578 67.22119141 C17.46464474 81.59800218 20.34469547 95.93969629 23.75170898 110.1965332 C26.17390424 120.4577718 28.24272385 130.78814676 30.3125 141.125 C30.48975616 142.00556061 30.66701233 142.88612122 30.84963989 143.79336548 C31.35778445 146.32247961 31.86141392 148.85244602 32.36328125 151.3828125 C32.51404114 152.13383743 32.66480103 152.88486237 32.82012939 153.65864563 C32.96110046 154.37602402 33.10207153 155.0934024 33.24731445 155.83251953 C33.36911575 156.44692902 33.49091705 157.0613385 33.6164093 157.69436646 C34.18523807 161.1134032 34.57009163 164.56073304 35 168 C27.74 168 20.48 168 13 168 C9.77174733 153.65388652 6.73537708 139.27340462 3.75 124.875 C3.28657166 122.6445077 2.82303068 120.4140388 2.359375 118.18359375 C1.2382885 112.78933077 0.11857828 107.39478362 -1 102 C-4.97795152 119.1659068 -4.97795152 119.1659068 -8.88671875 136.34765625 C-9.04253922 137.03906204 -9.19835968 137.73046783 -9.35890198 138.44282532 C-10.12060307 141.82486738 -10.88062506 145.20727968 -11.63891602 148.59008789 C-11.91791748 149.83137451 -12.19691895 151.07266113 -12.484375 152.3515625 C-12.72897461 153.44291504 -12.97357422 154.53426758 -13.22558594 155.65869141 C-14.10431982 159.45010121 -15.05607323 163.22429294 -16 167 C-23.26 167 -30.52 167 -38 167 C-37.36157439 160.61574393 -36.7873431 155.41611269 -35.25 149.37109375 C-34.98938782 148.32879608 -34.98938782 148.32879608 -34.72351074 147.26544189 C-34.34953365 145.76982214 -33.97279431 144.27489076 -33.59350586 142.78060913 C-32.55384461 138.67611763 -31.54136403 134.56497339 -30.53125 130.453125 C-30.32052856 129.59543015 -30.10980713 128.73773529 -29.8927002 127.85404968 C-27.60968539 118.49845526 -25.5418148 109.09818502 -23.5 99.6875 C-23.12713873 97.97224438 -22.75425453 96.25699375 -22.38134766 94.54174805 C-21.81942101 91.95605162 -21.25764524 89.37032307 -20.69644165 86.7844696 C-16.04021486 65.35388083 -11.24485692 43.94990864 -6.125 22.625 C-5.71386963 20.90651855 -5.71386963 20.90651855 -5.29443359 19.15332031 C-3.72776549 12.70187635 -1.98525879 6.3354416 0 0 Z " fill="#838383" transform="translate(176,48)"/>
<path d="M0 0 C0.9583374 0.00523682 1.9166748 0.01047363 2.90405273 0.01586914 C4.45576172 0.02070312 4.45576172 0.02070312 6.03881836 0.02563477 C7.12743164 0.03401367 8.21604492 0.04239258 9.33764648 0.05102539 C10.97636719 0.05779297 10.97636719 0.05779297 12.64819336 0.06469727 C15.35723144 0.07652713 18.06616248 0.09300996 20.77514648 0.11352539 C20.18386249 5.4207405 19.32668818 10.54432881 18.05639648 15.73461914 C17.88321899 16.45604599 17.7100415 17.17747284 17.53161621 17.92076111 C15.17494455 27.68771966 12.72231245 37.4314471 10.27514648 47.17602539 C9.79716917 49.08289818 9.31930418 50.98979912 8.84155273 52.89672852 C7.29514959 59.06792885 5.7481235 65.23897352 4.1986084 71.40939331 C1.92953552 80.44606649 -0.29854325 89.49153156 -2.47485352 98.55102539 C-3.08145417 101.07059762 -3.68823224 103.59012714 -4.29516602 106.10961914 C-4.45093109 106.75643646 -4.60669617 107.40325378 -4.7671814 108.06967163 C-5.93325174 112.90965614 -7.10510606 117.74822055 -8.27954102 122.58618164 C-8.45081512 123.29201889 -8.62208923 123.99785614 -8.79855347 124.7250824 C-9.65452971 128.25197352 -10.51172511 131.77856192 -11.37084961 135.3046875 C-12.87180135 141.47295664 -14.35703901 147.6434754 -15.77172852 153.83227539 C-15.99973145 154.82227539 -16.22773437 155.81227539 -16.46264648 156.83227539 C-16.87514281 158.63271914 -17.28086755 160.43473335 -17.6784668 162.23852539 C-18.13198342 164.2121245 -18.66910237 166.1662423 -19.22485352 168.11352539 C-19.88485352 168.44352539 -20.54485352 168.77352539 -21.22485352 169.11352539 C-21.88089218 160.7943329 -22.53312391 152.47485413 -23.18061066 144.1549921 C-23.4814402 140.29100636 -23.78353849 136.42712887 -24.08862305 132.56347656 C-24.38346154 128.82896943 -24.67485396 125.09420742 -24.96394348 121.35925102 C-25.07436069 119.94034835 -25.18598132 118.52153875 -25.2988739 117.10283089 C-26.1657775 106.19381902 -26.91045578 96.51074928 -24.24829102 85.85571289 C-23.93975441 84.56991081 -23.93975441 84.56991081 -23.62498474 83.25813293 C-22.96000411 80.49904403 -22.28031554 77.74383294 -21.59985352 74.98852539 C-21.13522215 73.07568656 -20.6712769 71.16268094 -20.20800781 69.24951172 C-17.69003912 58.88971263 -15.10866021 48.5471348 -12.35449219 38.24731445 C-10.94456331 32.95769188 -9.6163308 27.652239 -8.34204102 22.32836914 C-8.18138657 21.65744736 -8.02073212 20.98652557 -7.85520935 20.29527283 C-7.06253589 16.97789288 -6.2758448 13.65919267 -5.49560547 10.33886719 C-5.07347778 8.56056519 -5.07347778 8.56056519 -4.64282227 6.74633789 C-4.26806763 5.15136475 -4.26806763 5.15136475 -3.88574219 3.52416992 C-2.96099708 0.15108786 -2.96099708 0.15108786 0 0 Z " fill="#0472C1" transform="translate(125.224853515625,44.886474609375)"/>
<path d="M0 0 C2.97436806 2.97436806 2.54088343 6.38114556 2.78125 10.390625 C2.8689566 11.6633149 2.8689566 11.6633149 2.95843506 12.9617157 C3.14731841 15.72398525 3.32374781 18.4868983 3.5 21.25 C3.7514105 25.00677148 4.00846919 28.76314925 4.265625 32.51953125 C4.32764099 33.43831558 4.38965698 34.35709991 4.45355225 35.3037262 C4.98075021 43.01158459 5.65076446 50.70152234 6.52929688 58.37792969 C7.79588257 70.56750855 4.50573285 81.84027402 1.5625 93.5625 C1.1157724 95.36180981 0.66973953 97.16129223 0.22436523 98.9609375 C-0.46989036 101.76532015 -1.16480246 104.56952685 -1.8624115 107.37307739 C-3.52919724 114.07430714 -5.16376091 120.78280725 -6.78125 127.49609375 C-7.23115701 129.35930428 -7.68110758 131.2225043 -8.13110352 133.08569336 C-8.77913077 135.7692981 -9.42625317 138.45309996 -10.07003784 141.13772583 C-10.66678778 143.62395277 -11.26843636 146.10894941 -11.87109375 148.59375 C-12.04261963 149.31400864 -12.21414551 150.03426727 -12.39086914 150.77635193 C-13.66390453 155.99791009 -15.28487892 160.85463675 -17 166 C-24.26 166 -31.52 166 -39 166 C-38.34856542 160.13708881 -37.79130843 155.6335738 -36.22265625 150.16015625 C-34.61438492 144.38384053 -33.15677075 138.58861274 -31.80859375 132.74609375 C-31.61994247 131.9291655 -31.4312912 131.11223724 -31.23692322 130.27055359 C-30.84166332 128.55408552 -30.44716603 126.83744169 -30.05337524 125.12063599 C-28.97202273 120.40959122 -27.88057007 115.70088813 -26.7890625 110.9921875 C-26.56223282 110.01337112 -26.33540314 109.03455475 -26.10169983 108.02607727 C-20.39644102 83.44694533 -14.54003357 58.89874406 -8.36621094 34.43286133 C-5.47734706 22.9793136 -2.73052978 11.49217975 0 0 Z " fill="#848484" transform="translate(149,50)"/>
</svg>
