<?xml version="1.0" encoding="UTF-8"?>
<svg xmlns="http://www.w3.org/2000/svg" xmlns:xlink="http://www.w3.org/1999/xlink" width="32px" height="32px" viewBox="0 0 32 32" version="1.1">
<g id="surface1">
<path style=" stroke:none;fill-rule:nonzero;fill:rgb(99.607843%,99.607843%,99.607843%);fill-opacity:1;" d="M 0 0 C 10.558594 0 21.121094 0 32 0 C 32 10.558594 32 21.121094 32 32 C 21.441406 32 10.878906 32 0 32 C 0 21.441406 0 10.878906 0 0 Z M 0 0 "/>
<path style=" stroke:none;fill-rule:nonzero;fill:rgb(1.176471%,44.705883%,75.686276%);fill-opacity:1;" d="M 5 5.625 C 5.90625 5.625 6.816406 5.625 7.75 5.625 C 8.171875 6.886719 8.171875 6.886719 8.261719 7.363281 C 8.296875 7.527344 8.296875 7.527344 8.328125 7.695312 C 8.351562 7.808594 8.375 7.925781 8.398438 8.046875 C 8.671875 9.410156 8.976562 10.769531 9.289062 12.125 C 9.3125 12.222656 9.335938 12.324219 9.359375 12.425781 C 9.488281 12.992188 9.617188 13.558594 9.75 14.125 C 10.484375 11.296875 11.195312 8.464844 11.875 5.625 C 12.824219 5.625 13.773438 5.625 14.75 5.625 C 14.609375 6.75 14.609375 6.75 14.472656 7.3125 C 14.441406 7.4375 14.410156 7.5625 14.378906 7.691406 C 14.347656 7.820312 14.316406 7.953125 14.28125 8.085938 C 14.214844 8.363281 14.144531 8.644531 14.078125 8.921875 C 14.042969 9.0625 14.007812 9.199219 13.972656 9.34375 C 13.855469 9.832031 13.738281 10.320312 13.625 10.8125 C 13.386719 11.8125 13.136719 12.8125 12.867188 13.804688 C 12.394531 15.566406 11.984375 17.347656 11.558594 19.117188 C 11.324219 20.082031 11.09375 21.042969 10.859375 22.007812 C 10.839844 22.09375 10.816406 22.183594 10.796875 22.273438 C 10.453125 23.683594 10.105469 25.09375 9.75 26.5 C 9.667969 26.457031 9.585938 26.417969 9.5 26.375 C 9.417969 26.078125 9.351562 25.792969 9.289062 25.492188 C 9.269531 25.394531 9.25 25.300781 9.230469 25.203125 C 9.1875 24.992188 9.144531 24.78125 9.101562 24.574219 C 8.980469 23.980469 8.851562 23.386719 8.726562 22.792969 C 8.699219 22.664062 8.671875 22.53125 8.644531 22.398438 C 8.296875 20.738281 7.925781 19.082031 7.558594 17.425781 C 7.5 17.171875 7.441406 16.914062 7.386719 16.660156 C 7.132812 15.523438 6.878906 14.386719 6.625 13.25 C 6.59375 13.113281 6.5625 12.976562 6.53125 12.835938 C 6.351562 12.019531 6.167969 11.207031 5.984375 10.390625 C 5.960938 10.292969 5.941406 10.195312 5.917969 10.097656 C 5.855469 9.824219 5.796875 9.546875 5.734375 9.273438 C 5.714844 9.191406 5.695312 9.105469 5.675781 9.019531 C 5.574219 8.566406 5.46875 8.113281 5.359375 7.664062 C 5.335938 7.566406 5.3125 7.46875 5.289062 7.371094 C 5.242188 7.183594 5.199219 7 5.152344 6.816406 C 5.054688 6.402344 5 6.054688 5 5.625 Z M 5 5.625 "/>
<path style=" stroke:none;fill-rule:nonzero;fill:rgb(51.372552%,51.372552%,51.372552%);fill-opacity:1;" d="M 22 6 C 22.042969 6 22.082031 6 22.125 6 C 22.28125 6.765625 22.4375 7.53125 22.59375 8.296875 C 22.652344 8.574219 22.707031 8.847656 22.765625 9.125 C 23.074219 10.640625 23.382812 12.152344 23.683594 13.671875 C 23.707031 13.792969 23.730469 13.914062 23.753906 14.039062 C 23.789062 14.21875 23.789062 14.21875 23.828125 14.402344 C 24.183594 16.199219 24.542969 17.992188 24.96875 19.773438 C 25.273438 21.058594 25.53125 22.347656 25.789062 23.640625 C 25.8125 23.75 25.832031 23.859375 25.855469 23.972656 C 25.917969 24.289062 25.984375 24.605469 26.046875 24.921875 C 26.0625 25.015625 26.082031 25.109375 26.101562 25.207031 C 26.121094 25.296875 26.136719 25.386719 26.15625 25.480469 C 26.171875 25.554688 26.1875 25.632812 26.203125 25.710938 C 26.273438 26.140625 26.320312 26.570312 26.375 27 C 25.46875 27 24.558594 27 23.625 27 C 23.222656 25.207031 22.84375 23.410156 22.46875 21.609375 C 22.410156 21.332031 22.351562 21.050781 22.296875 20.773438 C 22.15625 20.097656 22.015625 19.425781 21.875 18.75 C 21.378906 20.894531 21.378906 20.894531 20.890625 23.042969 C 20.871094 23.128906 20.851562 23.214844 20.832031 23.304688 C 20.734375 23.726562 20.640625 24.152344 20.546875 24.574219 C 20.511719 24.730469 20.476562 24.882812 20.4375 25.042969 C 20.410156 25.179688 20.378906 25.316406 20.347656 25.457031 C 20.238281 25.929688 20.117188 26.402344 20 26.875 C 19.09375 26.875 18.183594 26.875 17.25 26.875 C 17.328125 26.078125 17.402344 25.425781 17.59375 24.671875 C 17.625 24.542969 17.625 24.542969 17.660156 24.40625 C 17.707031 24.222656 17.753906 24.035156 17.800781 23.847656 C 17.929688 23.335938 18.058594 22.820312 18.183594 22.304688 C 18.210938 22.199219 18.234375 22.09375 18.261719 21.980469 C 18.546875 20.8125 18.808594 19.636719 19.0625 18.460938 C 19.109375 18.246094 19.15625 18.03125 19.203125 17.816406 C 19.273438 17.496094 19.34375 17.171875 19.414062 16.847656 C 19.996094 14.167969 20.59375 11.492188 21.234375 8.828125 C 21.285156 8.613281 21.285156 8.613281 21.339844 8.394531 C 21.535156 7.585938 21.75 6.792969 22 6 Z M 22 6 "/>
<path style=" stroke:none;fill-rule:nonzero;fill:rgb(1.568628%,44.705883%,75.686276%);fill-opacity:1;" d="M 15.652344 5.609375 C 15.773438 5.613281 15.894531 5.613281 16.015625 5.613281 C 16.210938 5.613281 16.210938 5.613281 16.40625 5.613281 C 16.542969 5.613281 16.679688 5.617188 16.820312 5.617188 C 17.023438 5.617188 17.023438 5.617188 17.234375 5.617188 C 17.574219 5.621094 17.910156 5.621094 18.25 5.625 C 18.175781 6.289062 18.070312 6.929688 17.910156 7.578125 C 17.886719 7.667969 17.867188 7.757812 17.84375 7.851562 C 17.550781 9.070312 17.242188 10.289062 16.9375 11.507812 C 16.878906 11.746094 16.816406 11.984375 16.757812 12.222656 C 16.566406 12.996094 16.371094 13.765625 16.179688 14.535156 C 15.894531 15.667969 15.617188 16.796875 15.34375 17.929688 C 15.269531 18.246094 15.191406 18.558594 15.117188 18.875 C 15.097656 18.957031 15.078125 19.035156 15.058594 19.121094 C 14.910156 19.722656 14.765625 20.328125 14.617188 20.933594 C 14.597656 21.023438 14.574219 21.109375 14.554688 21.203125 C 14.445312 21.640625 14.339844 22.082031 14.230469 22.523438 C 14.042969 23.296875 13.859375 24.066406 13.679688 24.839844 C 13.652344 24.964844 13.625 25.085938 13.59375 25.214844 C 13.542969 25.441406 13.492188 25.664062 13.441406 25.890625 C 13.386719 26.136719 13.320312 26.382812 13.25 26.625 C 13.167969 26.667969 13.085938 26.707031 13 26.75 C 12.917969 25.710938 12.835938 24.671875 12.753906 23.628906 C 12.71875 23.148438 12.679688 22.664062 12.640625 22.179688 C 12.605469 21.714844 12.570312 21.246094 12.53125 20.78125 C 12.519531 20.601562 12.503906 20.425781 12.492188 20.25 C 12.382812 18.886719 12.289062 17.675781 12.621094 16.34375 C 12.660156 16.183594 12.660156 16.183594 12.699219 16.019531 C 12.78125 15.671875 12.867188 15.328125 12.953125 14.984375 C 13.011719 14.746094 13.070312 14.507812 13.128906 14.265625 C 13.441406 12.972656 13.765625 11.679688 14.109375 10.390625 C 14.285156 9.730469 14.449219 9.066406 14.609375 8.402344 C 14.628906 8.316406 14.652344 8.234375 14.671875 8.148438 C 14.769531 7.734375 14.867188 7.316406 14.964844 6.902344 C 15.019531 6.679688 15.019531 6.679688 15.074219 6.453125 C 15.121094 6.253906 15.121094 6.253906 15.167969 6.050781 C 15.28125 5.628906 15.28125 5.628906 15.652344 5.609375 Z M 15.652344 5.609375 "/>
<path style=" stroke:none;fill-rule:nonzero;fill:rgb(51.764709%,51.764709%,51.764709%);fill-opacity:1;" d="M 18.625 6.25 C 18.996094 6.621094 18.941406 7.046875 18.972656 7.546875 C 18.984375 7.707031 18.984375 7.707031 18.996094 7.871094 C 19.019531 8.214844 19.039062 8.5625 19.0625 8.90625 C 19.09375 9.375 19.125 9.84375 19.15625 10.316406 C 19.164062 10.429688 19.171875 10.542969 19.183594 10.664062 C 19.246094 11.625 19.332031 12.585938 19.441406 13.546875 C 19.597656 15.070312 19.1875 16.480469 18.820312 17.945312 C 18.765625 18.171875 18.707031 18.394531 18.652344 18.621094 C 18.566406 18.96875 18.480469 19.320312 18.390625 19.671875 C 18.183594 20.507812 17.980469 21.347656 17.777344 22.1875 C 17.722656 22.417969 17.664062 22.652344 17.609375 22.886719 C 17.527344 23.222656 17.445312 23.554688 17.367188 23.890625 C 17.292969 24.203125 17.214844 24.511719 17.140625 24.824219 C 17.121094 24.914062 17.097656 25.003906 17.074219 25.097656 C 16.917969 25.75 16.714844 26.355469 16.5 27 C 15.59375 27 14.683594 27 13.75 27 C 13.832031 26.265625 13.902344 25.703125 14.097656 25.019531 C 14.296875 24.296875 14.480469 23.574219 14.648438 22.84375 C 14.671875 22.742188 14.695312 22.640625 14.71875 22.535156 C 14.769531 22.320312 14.820312 22.105469 14.867188 21.890625 C 15.003906 21.300781 15.140625 20.710938 15.277344 20.125 C 15.304688 20 15.332031 19.878906 15.363281 19.753906 C 16.074219 16.679688 16.808594 13.613281 17.578125 10.554688 C 17.941406 9.121094 18.285156 7.6875 18.625 6.25 Z M 18.625 6.25 "/>
</g>
</svg>
